<?xml version="1.0" encoding="utf-8"?>
<!-- Generator: Adobe Illustrator 26.5.0, SVG Export Plug-In . SVG Version: 6.00 Build 0)  -->
<svg version="1.1" id="Vrstva_1" xmlns="http://www.w3.org/2000/svg" xmlns:xlink="http://www.w3.org/1999/xlink" x="0px" y="0px"
	 viewBox="0 0 153.96 110.13" style="enable-background:new 0 0 153.96 110.13;" xml:space="preserve">
<style type="text/css">
	.st0{fill:#D41616;}
	.st1{fill:#73A72D;}
	.st2{font-family:'Impact';}
	.st3{font-size:18px;}
	.st4{fill:none;}
</style>
<g>
	<line class="st0" x1="41.36" y1="51.31" x2="93.72" y2="50.91"/>
	<path class="st1" d="M41.35,50.17c4.37,0.57,8.73,0.24,13.09,0.11c11.98-0.39,24-1.45,35.99-0.89c1.09,0.05,2.18,0.16,3.28,0.59
		c0,0,0.01,1.87,0.01,1.87c-1.84,0.78-4.59,0.65-6.54,0.82c-2.18,0.09-4.36,0.14-6.54,0.12c-8.73-0.05-17.46-0.43-26.19-0.63
		c-4.36-0.07-8.73-0.32-13.09,0.31L41.35,50.17L41.35,50.17z"/>
</g>
<g>
	<line class="st0" x1="62.98" y1="10.46" x2="93.75" y2="51.84"/>
	<path class="st1" d="M63.43,10.12c0.36-0.19,0.25-0.15,0.42-0.06c0.11,0.07,0.45,0.26,0.57,0.33c0.74,0.39,1.42,0.92,1.87,1.62
		c0,0,1.93,2.58,1.93,2.58c2.63,3.44,8.68,12.07,11.28,15.71c2.48,3.51,4.99,7,7.57,10.44c2.02,2.51,4.32,4.82,6.01,7.58
		c0.48,0.98,1.07,1.88,0.66,3.53c-2.78-0.24-3.73-2.39-5.16-4.2c-1.28-1.73-2.33-3.62-3.56-5.39c-5.93-8.06-13.65-17.5-19.62-25.58
		c0,0-1.91-2.59-1.91-2.59c-0.54-0.63-0.85-1.43-1.01-2.26c0,0-0.1-0.43-0.1-0.43s-0.05-0.21-0.05-0.21s-0.03-0.11-0.03-0.11
		C62.22,10.91,63.32,10.25,63.43,10.12L63.43,10.12z"/>
</g>
<g>
	<path class="st1" d="M64.19,11.99c-2.09,3.22-5.98,7.33-8.48,10.3c-2.94,3.34-5.75,6.79-8.64,10.17
		c-4.61,5.28-9.15,11.45-13.42,17.05c-0.78,0.81-1.04,2.03-1.96,2.71c-0.55,0.27-1.23,0.42-2.09,0.43l-0.58-0.48
		c-0.28-1.5-0.05-2.59,1.15-3.38c1.52-1.34,5.31-5.8,6.81-7.36c5.98-6.6,11.51-13.57,17.1-20.5c2.46-3.01,5.78-7.56,8.57-10.23
		C62.65,10.71,64.19,11.99,64.19,11.99L64.19,11.99z"/>
</g>
<g>
	<path class="st1" d="M33.57,49.24c0.04,1.02,0.47,2.04,0.51,3.05c0.02,2-0.02,7.05-0.02,9.13c-0.09,6.07-0.28,18.28-0.37,24.35
		c0,2.03-0.04,4.06,0.15,6.09c-0.07,2.03,1.16,4.08-0.93,6.08c0,0-2-0.03-2-0.03c-2.04-2.06-0.75-4.07-0.77-6.1
		c0.25-2.03,0.26-4.06,0.32-6.08c0.08-6.07,0.22-18.28,0.3-24.35c0.06-2.09,0.14-7.1,0.23-9.13c0.07-1.01,0.52-2.02,0.59-3.04
		L33.57,49.24L33.57,49.24z"/>
</g>
<g>
	<path class="st1" d="M30.64,96.22c0.35-1.17,0.97-1.35,1.98-1.34c4.6,0.12,9.19,0.53,13.79,0.5c13.14,0.01,26.29-0.05,39.41,0.86
		c0,0,3.94,0.22,3.94,0.22c1.31,0.14,2.63-0.1,3.93,0.74l0,0.32c-1.32,0.81-2.63,0.54-3.95,0.66l-3.94,0.14
		c-7.88,0.32-15.77,0.46-23.65,0.37c-7.88-0.12-15.76-0.52-23.65-0.23c-2.29,0-4.63,0.34-6.9,0c-0.54-0.15-0.72-0.53-0.97-1.24
		C30.63,97.22,30.64,96.22,30.64,96.22L30.64,96.22z"/>
</g>
<g>
	<g>
		<path d="M39.9,56.41h4.93c3.21,0,5.51,1.15,5.51,4.43c0,3.15-2.3,4.66-5.51,4.66H41.9v6.66h-2V56.41z M44.54,63.88
			c2.45,0,3.8-0.99,3.8-3.04c0-2.07-1.35-2.81-3.8-2.81H41.9v5.84H44.54z M44.44,64.95l1.57-1.04l4.81,8.25h-2.27L44.44,64.95z"/>
		<path d="M52.5,66.34c0-3.8,2.56-6.14,5.25-6.14c2.98,0,4.66,2.14,4.66,5.47c0,0.42-0.04,0.83-0.09,1.12h-7.86
			c0.14,2.47,1.65,4.07,3.88,4.07c1.12,0,2.04-0.36,2.9-0.93l0.71,1.3c-1.02,0.67-2.27,1.21-3.85,1.21
			C54.98,72.45,52.5,70.18,52.5,66.34z M60.66,65.39c0-2.34-1.05-3.61-2.88-3.61c-1.64,0-3.11,1.32-3.35,3.61H60.66z"/>
		<path d="M64.55,69.13c0-2.54,2.19-3.81,7.17-4.35c0-1.5-0.5-2.95-2.41-2.95c-1.35,0-2.56,0.64-3.48,1.25l-0.77-1.35
			c1.07-0.71,2.71-1.52,4.58-1.52c2.85,0,4.05,1.89,4.05,4.8v7.16h-1.63l-0.17-1.39h-0.07c-1.11,0.92-2.41,1.68-3.86,1.68
			C66.02,72.45,64.55,71.24,64.55,69.13z M71.72,69.32v-3.24c-3.91,0.47-5.23,1.43-5.23,2.92c0,1.33,0.9,1.87,2.04,1.87
			C69.66,70.86,70.59,70.31,71.72,69.32z"/>
		<path d="M77.37,69.82V55.06h1.97v14.9c0,0.6,0.26,0.84,0.55,0.84c0.11,0,0.21,0,0.43-0.05l0.27,1.51
			c-0.28,0.1-0.62,0.18-1.14,0.18C77.98,72.45,77.37,71.51,77.37,69.82z"/>
		<path d="M83.13,56.82c0-0.78,0.6-1.28,1.36-1.28c0.77,0,1.36,0.5,1.36,1.28c0,0.75-0.6,1.28-1.36,1.28
			C83.72,58.1,83.13,57.57,83.13,56.82z M83.49,60.49h1.97v11.67h-1.97V60.49z"/>
		<path d="M89.74,68.55V62.1H88v-1.5l1.82-0.11l0.24-3.27h1.65v3.27h3.16v1.61h-3.16v6.49c0,1.43,0.46,2.25,1.8,2.25
			c0.41,0,0.95-0.16,1.33-0.31l0.38,1.49c-0.66,0.22-1.44,0.43-2.17,0.43C90.58,72.45,89.74,70.88,89.74,68.55z"/>
		<path d="M96.33,76.95l0.39-1.57c0.23,0.08,0.59,0.17,0.89,0.17c1.32,0,2.15-1.06,2.63-2.5l0.26-0.86l-4.68-11.69h2.04l2.38,6.46
			c0.37,1.01,0.76,2.21,1.14,3.29h0.1c0.33-1.06,0.66-2.26,0.98-3.29l2.08-6.46h1.93l-4.4,12.63c-0.82,2.31-2.03,4.07-4.37,4.07
			C97.16,77.19,96.71,77.09,96.33,76.95z"/>
	</g>
</g>
<text transform="matrix(1.3741 0 0 1 38.9754 91.4796)" class="st2 st3">KOPICOVÁ</text>
<line class="st4" x1="79.78" y1="33.26" x2="79.78" y2="33.26"/>
<line class="st4" x1="88.12" y1="43.85" x2="88.12" y2="43.85"/>
</svg>
